<svg xmlns="http://www.w3.org/2000/svg" viewBox="0 0 64 64" >
<rect x="4" y="5" width="56" height="56" rx="6" fill="#FF7518"/>
<path d="M40.6667 16.8095V18.7143H38.7619V20.619H36.8571V22.5238H33.0476V24.4286H31.1429V22.5238H27.3333V20.619H25.4286V18.7143H23.5238V16.8095H27.3333V18.7143H29.2381V20.619H30.1905V14.9048H31.1429V13H33.0476V14.9048H34V20.619H34.9524V18.7143H36.8571V16.8095H40.6667ZM42.5714 18.7143V20.619H40.6667V22.5238H38.7619V24.4286H36.8571V26.3333H34.9524V28.2381H33.0476V30.1429H31.1429V28.2381H29.2381V26.3333H27.3333V24.4286H25.4286V22.5238H23.5238V20.619H21.619V18.7143H14V53H21.619V32.0476H23.5238V33.9524H25.4286V35.8571H27.3333V37.7619H29.2381V39.6667H31.1429V41.5714H33.0476V39.6667H34.9524V37.7619H36.8571V35.8571H38.7619V33.9524H40.6667V32.0476H42.5714V53H50.1905V18.7143H42.5714Z" fill="#F4F3F3"/>
</svg>
