<svg xmlns="http://www.w3.org/2000/svg" viewBox="0 0 24 24" fill="currentColor"><path id="d" d="M14.57,7.14v.57h-.57v.57h-.57v.57h-1.14v.57h-.57v-.57h-1.14v-.57h-.57v-.57h-.57v-.57h1.14v.57h.57v.57h.29v-1.71h.29v-.57h.57v.57h.29v1.71h.29v-.57h.57v-.57h1.14ZM15.14,7.71v.57h-.57v.57h-.57v.57h-.57v.57h-.57v.57h-.57v.57h-.57v-.57h-.57v-.57h-.57v-.57h-.57v-.57h-.57v-.57h-.57v-.57h-2.29v10.29h2.29v-6.29h.57v.57h.57v.57h.57v.57h.57v.57h.57v.57h.57v-.57h.57v-.57h.57v-.57h.57v-.57h.57v-.57h.57v6.29h2.29V7.71h-2.29Z" stroke-width="0"/></svg>