<svg xmlns="http://www.w3.org/2000/svg" viewBox="0 0 524 168"><path class="m" d="M94,50v4h-4v4h-4v4h-8v4h-4v-4h-8v-4h-4v-4h-4v-4h8v4h4v4h2v-12h2v-4h4v4h2v12h2v-4h4v-4h8ZM98,54v4h-4v4h-4v4h-4v4h-4v4h-4v4h-4v-4h-4v-4h-4v-4h-4v-4h-4v-4h-4v-4h-16v72h16v-44h4v4h4v4h4v4h4v4h4v4h4v-4h4v-4h4v-4h4v-4h4v-4h4v44h16V54h-16Z" fill="#FF7518" stroke-width="0"/><path class="arinoco" d="M306,78v48h-16v-44h-4v-4h-12v4h-4v44h-16v-48h4v-8h8v-4h28v4h8v8h4ZM366,78v36h-4v8h-8v4h-28v-4h-8v-8h-4v-36h4v-8h8v-4h28v4h8v8h4ZM350,82h-4v-4h-12v4h-4v28h4v4h12v-4h4v-28ZM486,78v36h-4v8h-8v4h-28v-4h-8v-8h-4v-36h4v-8h8v-4h28v4h8v8h4ZM470,82h-4v-4h-12v4h-4v28h4v4h12v-4h4v-28ZM422,66v-8h-8v-4h-28v4h-8v8h-4v48h4v8h8v4h28v-4h8v-8h4v-16h-16v8h-4v4h-12v-4h-4v-32h4v-4h12v4h4v8h16v-16h-4ZM230,70v56h16v-56h-16ZM242,54v-4h-8v4h-4v8h4v4h8v-4h4v-8h-4ZM214,70v-4h-24v4h-8v56h16v-48h12v8h12v-16h-8ZM174,78v48h-40v-4h-8v-8h-4v-8h4v-8h8v-4h24v-12h-4v-4h-12v4h-4v4h-16v-8h4v-8h8v-4h28v4h8v8h4ZM158,102h-16v12h16v-12Z" stroke-width="0" fill="currentColor"/></svg>